<?xml version="1.0" encoding="UTF-8" standalone="no"?>
<!-- Created with Inkscape (http://www.inkscape.org/) -->

<svg
   xmlns:dc="http://purl.org/dc/elements/1.1/"
   xmlns:cc="http://creativecommons.org/ns#"
   xmlns:rdf="http://www.w3.org/1999/02/22-rdf-syntax-ns#"
   xmlns:svg="http://www.w3.org/2000/svg"
   xmlns="http://www.w3.org/2000/svg"
   xmlns:sodipodi="http://sodipodi.sourceforge.net/DTD/sodipodi-0.dtd"
   xmlns:inkscape="http://www.inkscape.org/namespaces/inkscape"
   width="210mm"
   height="297mm"
   viewBox="0 0 210 297"
   version="1.1"
   id="svg8"
   inkscape:version="0.92.3 (2405546, 2018-03-11)"
   sodipodi:docname="esercizio_23.svg">
  <defs
     id="defs2" />
  <sodipodi:namedview
     id="base"
     pagecolor="#ffffff"
     bordercolor="#666666"
     borderopacity="1.0"
     inkscape:pageopacity="0.0"
     inkscape:pageshadow="2"
     inkscape:zoom="0.7"
     inkscape:cx="64.818717"
     inkscape:cy="603.42709"
     inkscape:document-units="mm"
     inkscape:current-layer="layer1"
     showgrid="false"
     inkscape:window-width="2560"
     inkscape:window-height="1333"
     inkscape:window-x="0"
     inkscape:window-y="0"
     inkscape:window-maximized="1" />
  <metadata
     id="metadata5">
    <rdf:RDF>
      <cc:Work
         rdf:about="">
        <dc:format>image/svg+xml</dc:format>
        <dc:type
           rdf:resource="http://purl.org/dc/dcmitype/StillImage" />
        <dc:title />
      </cc:Work>
    </rdf:RDF>
  </metadata>
  <g
     inkscape:label="Livello 1"
     inkscape:groupmode="layer"
     id="layer1">
    <ellipse
       style="fill:none;stroke:#000000;stroke-width:0.50000001;stroke-miterlimit:4;stroke-dasharray:2.00000006,2.00000006;stroke-dashoffset:0;stroke-opacity:1"
       id="path815"
       cx="107.91221"
       cy="95.916664"
       rx="19.465773"
       ry="6.4255953"
       inkscape:export-xdpi="196.28999"
       inkscape:export-ydpi="196.28999" />
    <path
       style="fill:none;fill-rule:evenodd;stroke:#000000;stroke-width:0.4814415;stroke-linecap:butt;stroke-linejoin:miter;stroke-miterlimit:4;stroke-dasharray:none;stroke-opacity:1"
       d="M 127.60494,42.924406 V 144.28067"
       id="path4550"
       inkscape:connector-curvature="0"
       inkscape:export-xdpi="196.28999"
       inkscape:export-ydpi="196.28999" />
    <path
       style="fill:none;fill-rule:evenodd;stroke:#000000;stroke-width:0.48124975;stroke-linecap:butt;stroke-linejoin:miter;stroke-miterlimit:4;stroke-dasharray:none;stroke-opacity:1"
       d="M 88.525761,143.93289 V 42.735419"
       id="path4552"
       inkscape:connector-curvature="0"
       inkscape:export-xdpi="196.28999"
       inkscape:export-ydpi="196.28999" />
    <path
       style="fill:none;fill-rule:evenodd;stroke:#000000;stroke-width:0.26458332px;stroke-linecap:butt;stroke-linejoin:miter;stroke-opacity:1"
       d="m 107.76107,96.219077 13.53942,-4.64642"
       id="path4573"
       inkscape:connector-curvature="0"
       sodipodi:nodetypes="cc"
       inkscape:export-xdpi="196.28999"
       inkscape:export-ydpi="196.28999" />
    <text
       xml:space="preserve"
       style="font-style:normal;font-variant:normal;font-weight:normal;font-stretch:normal;font-size:8.81944466px;line-height:125%;font-family:'Times New Roman';-inkscape-font-specification:'Times New Roman, ';letter-spacing:0px;word-spacing:0px;fill:#000000;fill-opacity:1;stroke:none;stroke-width:0.26458332px;stroke-linecap:butt;stroke-linejoin:miter;stroke-opacity:1"
       x="99.157539"
       y="96.113487"
       id="text4577"
       inkscape:export-xdpi="196.28999"
       inkscape:export-ydpi="196.28999"><tspan
         sodipodi:role="line"
         id="tspan4575"
         x="99.157539"
         y="96.113487"
         style="font-style:italic;stroke-width:0.26458332px">R<tspan
   style="font-size:64.99999762%;baseline-shift:sub"
   id="tspan834">1</tspan></tspan></text>
    <path
       style="fill:none;stroke:#000000;stroke-width:0.5;stroke-miterlimit:4;stroke-dasharray:none;stroke-dashoffset:0;stroke-opacity:1"
       id="path815-7"
       sodipodi:type="arc"
       sodipodi:cx="108.06982"
       sodipodi:cy="143.81039"
       sodipodi:rx="19.515884"
       sodipodi:ry="6.4255953"
       sodipodi:start="0"
       sodipodi:end="3.1452515"
       d="m 127.5857,143.81039 a 19.515884,6.4255953 0 0 1 -9.77856,5.56865 19.515884,6.4255953 0 0 1 -19.536463,-0.0118 19.515884,6.4255953 0 0 1 -9.716614,-5.58039"
       sodipodi:open="true"
       inkscape:export-xdpi="196.28999"
       inkscape:export-ydpi="196.28999" />
    <ellipse
       style="fill:none;stroke:#000000;stroke-width:0.5;stroke-miterlimit:4;stroke-dasharray:none;stroke-dashoffset:0;stroke-opacity:1"
       id="path815-3"
       cx="108.01968"
       cy="42.462715"
       rx="19.465773"
       ry="6.4255953"
       inkscape:export-xdpi="196.28999"
       inkscape:export-ydpi="196.28999" />
    <path
       style="fill:none;fill-rule:evenodd;stroke:#000000;stroke-width:0.48144156;stroke-linecap:butt;stroke-linejoin:miter;stroke-miterlimit:4;stroke-dasharray:none;stroke-opacity:1"
       d="M 141.80256,43.663647 V 143.71599"
       id="path4550-6"
       inkscape:connector-curvature="0"
       inkscape:export-xdpi="196.28999"
       inkscape:export-ydpi="196.28999" />
    <path
       style="fill:none;fill-rule:evenodd;stroke:#000000;stroke-width:0.48124984;stroke-linecap:butt;stroke-linejoin:miter;stroke-miterlimit:4;stroke-dasharray:none;stroke-opacity:1"
       d="M 74.236955,143.54849 V 43.337805"
       id="path4552-2"
       inkscape:connector-curvature="0"
       inkscape:export-xdpi="196.28999"
       inkscape:export-ydpi="196.28999" />
    <path
       style="fill:none;stroke:#000000;stroke-width:0.49999997;stroke-miterlimit:4;stroke-dasharray:none;stroke-dashoffset:0;stroke-opacity:1"
       id="path815-7-9"
       sodipodi:type="arc"
       sodipodi:cx="108.059"
       sodipodi:cy="143.52153"
       sodipodi:rx="33.773335"
       sodipodi:ry="11.078553"
       sodipodi:start="0"
       sodipodi:end="3.1452515"
       d="M 141.83233,143.52153 A 33.773335,11.078553 0 0 1 124.90998,153.12259 33.773335,11.078553 0 0 1 91.101037,153.1023 33.773335,11.078553 0 0 1 74.28589,143.481"
       sodipodi:open="true"
       inkscape:export-xdpi="196.28999"
       inkscape:export-ydpi="196.28999" />
    <ellipse
       style="fill:none;stroke:#000000;stroke-width:0.5;stroke-miterlimit:4;stroke-dasharray:none;stroke-dashoffset:0;stroke-opacity:1"
       id="path815-3-1"
       cx="107.9409"
       cy="42.867622"
       rx="33.65522"
       ry="11.078553"
       inkscape:export-xdpi="196.28999"
       inkscape:export-ydpi="196.28999" />
    <path
       style="fill:none;fill-rule:evenodd;stroke:#000000;stroke-width:0.48144153;stroke-linecap:butt;stroke-linejoin:miter;stroke-miterlimit:4;stroke-dasharray:none;stroke-opacity:1"
       d="m 156.54559,43.61198 v 99.34113"
       id="path4550-6-2"
       inkscape:connector-curvature="0"
       inkscape:export-xdpi="196.28999"
       inkscape:export-ydpi="196.28999" />
    <path
       style="fill:none;fill-rule:evenodd;stroke:#000000;stroke-width:0.48124984;stroke-linecap:butt;stroke-linejoin:miter;stroke-miterlimit:4;stroke-dasharray:none;stroke-opacity:1"
       d="M 61.482587,142.77859 V 43.153786"
       id="path4552-2-7"
       inkscape:connector-curvature="0"
       inkscape:export-xdpi="196.28999"
       inkscape:export-ydpi="196.28999" />
    <path
       style="fill:none;stroke:#000000;stroke-width:0.49999997;stroke-miterlimit:4;stroke-dasharray:none;stroke-dashoffset:0;stroke-opacity:1"
       id="path815-7-9-0"
       sodipodi:type="arc"
       sodipodi:cx="109.03593"
       sodipodi:cy="142.46017"
       sodipodi:rx="47.551624"
       sodipodi:ry="15.578499"
       sodipodi:start="0"
       sodipodi:end="3.1452515"
       d="M 156.58755,142.46017 A 47.551624,15.578499 0 0 1 132.7615,155.96104 47.551624,15.578499 0 0 1 85.159736,155.93251 47.551624,15.578499 0 0 1 61.484621,142.40318"
       sodipodi:open="true"
       inkscape:export-xdpi="196.28999"
       inkscape:export-ydpi="196.28999" />
    <ellipse
       style="fill:none;stroke:#000000;stroke-width:0.5;stroke-miterlimit:4;stroke-dasharray:none;stroke-dashoffset:0;stroke-opacity:1"
       id="path815-3-1-9"
       cx="108.90316"
       cy="42.492626"
       rx="47.352039"
       ry="15.578499"
       inkscape:export-xdpi="196.28999"
       inkscape:export-ydpi="196.28999" />
    <path
       style="fill:none;fill-rule:evenodd;stroke:#000000;stroke-width:0.48144153;stroke-linecap:butt;stroke-linejoin:miter;stroke-miterlimit:4;stroke-dasharray:none;stroke-opacity:1"
       d="M 172.281,43.896464 V 139.10233"
       id="path4550-6-2-6"
       inkscape:connector-curvature="0"
       inkscape:export-xdpi="196.28999"
       inkscape:export-ydpi="196.28999" />
    <path
       style="fill:none;fill-rule:evenodd;stroke:#000000;stroke-width:0.48124987;stroke-linecap:butt;stroke-linejoin:miter;stroke-miterlimit:4;stroke-dasharray:none;stroke-opacity:1"
       d="M 42.433431,139.26926 V 43.268112"
       id="path4552-2-7-0"
       inkscape:connector-curvature="0"
       inkscape:export-xdpi="196.28999"
       inkscape:export-ydpi="196.28999" />
    <path
       style="fill:none;stroke:#000000;stroke-width:0.5;stroke-miterlimit:4;stroke-dasharray:none;stroke-dashoffset:0;stroke-opacity:1"
       id="path815-7-9-0-6"
       sodipodi:type="arc"
       sodipodi:cx="107.33294"
       sodipodi:cy="138.64862"
       sodipodi:rx="64.90551"
       sodipodi:ry="21.363935"
       sodipodi:start="0"
       sodipodi:end="3.1452515"
       d="m 172.23845,138.64862 a 64.90551,21.363935 0 0 1 -32.52133,18.51473 64.90551,21.363935 0 0 1 -64.973948,-0.0391 64.90551,21.363935 0 0 1 -32.315308,-18.55377"
       sodipodi:open="true"
       inkscape:export-xdpi="196.28999"
       inkscape:export-ydpi="196.28999" />
    <ellipse
       style="fill:none;stroke:#000000;stroke-width:0.5;stroke-miterlimit:4;stroke-dasharray:none;stroke-dashoffset:0;stroke-opacity:1"
       id="path815-3-1-9-2"
       cx="107.48907"
       cy="42.361412"
       rx="64.961594"
       ry="21.363935"
       inkscape:export-xdpi="196.28999"
       inkscape:export-ydpi="196.28999" />
    <path
       style="fill:#999999;fill-opacity:1;stroke:none;stroke-width:1.00157475;stroke-linecap:butt;stroke-linejoin:round;stroke-miterlimit:4;stroke-dasharray:none;stroke-dashoffset:0;stroke-opacity:1;paint-order:normal"
       d="m 324.9177,192.37804 c -14.24354,-4.22422 -25.4752,-9.30535 -32.85715,-14.86437 -6.72721,-5.06597 -9.64285,-9.75495 -9.64285,-15.50776 0,-5.75281 2.91564,-10.44179 9.64285,-15.50775 25.40411,-19.13073 90.26849,-29.20027 150.76511,-23.40477 47.68423,4.56809 82.41008,17.51592 89.63036,33.41944 5.78024,12.73167 -9.05648,26.05415 -39.18695,35.18752 -4.44247,1.34663 -8.35118,2.44842 -8.68605,2.44842 -0.33485,0 -0.71797,-7.95536 -0.85137,-17.67857 -0.23752,-17.31364 -0.27939,-17.74433 -2.02824,-20.86415 -4.75579,-8.48396 -20.23679,-14.98977 -44.50061,-18.70116 -13.6738,-2.09154 -41.84797,-2.25742 -55.85653,-0.32885 -17.52987,2.41334 -31.21253,6.65792 -39.64286,12.29784 -8.29204,5.5474 -8.57143,6.46785 -8.57143,28.23862 0,19.61908 0.88976,17.96554 -8.21428,15.26554 z"
       id="path979"
       inkscape:connector-curvature="0"
       transform="scale(0.26458333)"
       inkscape:export-xdpi="196.28999"
       inkscape:export-ydpi="196.28999" />
    <path
       style="fill:#999999;fill-opacity:1;stroke:none;stroke-width:1.00157475;stroke-linecap:butt;stroke-linejoin:round;stroke-miterlimit:4;stroke-dasharray:none;stroke-dashoffset:0;stroke-opacity:1;paint-order:normal"
       d="m 537.4177,183.05938 c 0,-10.00798 -0.24108,-18.19667 -0.53572,-18.1971 -0.29464,-4.3e-4 -0.58431,-1.60891 -0.64372,-3.57441 -0.50772,-16.79878 -29.75066,-31.73959 -75.52929,-38.58946 -19.34093,-2.89399 -34.22223,-3.7362 -59.00556,-3.33944 -29.41599,0.47092 -47.19941,2.44037 -68.92857,7.63361 -16.91496,4.04265 -32.34063,10.28742 -41.42554,16.77028 -5.36055,3.82521 -7.87239,6.67267 -10.10689,11.45734 -1.62313,3.47556 -1.66809,4.11179 -1.67488,23.70193 l -0.007,20.13051 -6.89124,-2.80395 c -23.0728,-9.38801 -37.2865,-21.81948 -38.63592,-33.79141 -0.81114,-7.19646 4.21945,-16.30801 12.73572,-23.0673 45.0566,-35.76105 180.06638,-47.679317 273.50573,-24.14429 35.78892,9.01434 59.37868,21.97447 66.56408,36.57009 2.51699,5.11273 3.01048,10.97527 1.2871,15.29051 -4.75313,11.9016 -20.16845,22.90154 -44.81547,31.97906 l -5.89285,2.17034 z"
       id="path981"
       inkscape:connector-curvature="0"
       transform="scale(0.26458333)"
       inkscape:export-xdpi="196.28999"
       inkscape:export-ydpi="196.28999" />
    <path
       style="fill:#999999;fill-opacity:1;stroke:none;stroke-width:1.00157475;stroke-linecap:butt;stroke-linejoin:round;stroke-miterlimit:4;stroke-dasharray:none;stroke-dashoffset:0;stroke-opacity:1;paint-order:normal"
       d="m 269.83492,225.94752 c -9.16424,-2.12173 -24.90226,-6.27044 -31.16722,-8.21601 l -4.82143,-1.49728 v -22.57098 -22.57098 l 1.85672,2.77825 c 2.86815,4.29168 5.85512,7.23349 12.07185,11.88934 5.60127,4.19492 20.61521,11.99631 28.03571,14.56764 l 3.75,1.29944 v 13.04663 c 0,11.96818 -0.10332,13.0425 -1.25,12.99674 -0.6875,-0.0274 -4.50153,-0.8027 -8.47563,-1.72279 z"
       id="path983"
       inkscape:connector-curvature="0"
       transform="scale(0.26458333)"
       inkscape:export-xdpi="196.28999"
       inkscape:export-ydpi="196.28999" />
    <path
       style="fill:#999999;fill-opacity:1;stroke:none;stroke-width:1.00157475;stroke-linecap:butt;stroke-linejoin:round;stroke-miterlimit:4;stroke-dasharray:none;stroke-dashoffset:0;stroke-opacity:1;paint-order:normal"
       d="m 318.48912,209.54461 c -11.70093,-2.40892 -21.45452,-4.90473 -31.25,-7.99647 l -5.53571,-1.74724 V 185.08195 170.363 l 2.11575,2.92071 c 5.67751,7.83758 22.62816,16.71826 41.99139,21.99988 l 7.32143,1.99703 v 7.36265 c 0,8.76817 1.57651,8.24048 -14.64286,4.90134 z"
       id="path985"
       inkscape:connector-curvature="0"
       transform="scale(0.26458333)"
       inkscape:export-xdpi="196.28999"
       inkscape:export-ydpi="196.28999" />
    <path
       style="fill:#999999;fill-opacity:1;stroke:none;stroke-width:1.00157475;stroke-linecap:butt;stroke-linejoin:round;stroke-miterlimit:4;stroke-dasharray:none;stroke-dashoffset:0;stroke-opacity:1;paint-order:normal"
       d="m 319.56055,234.41921 c -9.66098,-1.27396 -30.08736,-4.46799 -34.46428,-5.38909 l -3.39286,-0.71401 v -12.79796 c 0,-7.03887 0.27111,-12.79795 0.60246,-12.79795 0.33136,0 2.4588,0.63867 4.72765,1.41927 7.29729,2.51063 19.70105,5.62065 32.72207,8.20446 6.98226,1.38552 12.84834,2.51913 13.03571,2.51913 0.18738,0 0.34068,4.66071 0.34068,10.35714 v 10.35714 l -3.03571,-0.0846 c -1.66965,-0.0465 -6.41072,-0.52961 -10.53572,-1.07357 z"
       id="path987"
       inkscape:connector-curvature="0"
       transform="scale(0.26458333)"
       inkscape:export-xdpi="196.28999"
       inkscape:export-ydpi="196.28999" />
    <path
       style="fill:#999999;fill-opacity:1;stroke:none;stroke-width:1.00157475;stroke-linecap:butt;stroke-linejoin:round;stroke-miterlimit:4;stroke-dasharray:none;stroke-dashoffset:0;stroke-opacity:1;paint-order:normal"
       d="m 382.06055,239.10168 c -15.57129,-0.48293 -29.60572,-1.33699 -41.60714,-2.53197 l -4.46429,-0.44451 v -10.27393 c 0,-7.91917 0.21145,-10.27393 0.92253,-10.27393 0.50739,0 4.6056,0.479 9.10714,1.06444 35.66845,4.63882 82.47215,5.18081 119.25605,1.38099 5.69643,-0.58845 11.5625,-1.25977 13.03571,-1.49182 l 2.67857,-0.42191 v 9.72054 c 0,9.5001 -0.0364,9.72852 -1.60714,10.07246 -5.92721,1.29786 -63.53536,4.17547 -76.60714,3.82663 -1.96429,-0.0524 -11.28572,-0.33456 -20.71429,-0.62699 z"
       id="path989"
       inkscape:connector-curvature="0"
       transform="scale(0.26458333)"
       inkscape:export-xdpi="196.28999"
       inkscape:export-ydpi="196.28999" />
    <path
       style="fill:#999999;fill-opacity:1;stroke:none;stroke-width:1.00157475;stroke-linecap:butt;stroke-linejoin:round;stroke-miterlimit:4;stroke-dasharray:none;stroke-dashoffset:0;stroke-opacity:1;paint-order:normal"
       d="m 483.84627,225.73698 v -9.90509 l 11.60714,-1.97724 c 9.67964,-1.6489 34.32693,-7.31009 38.05569,-8.74096 0.89881,-0.3449 1.05145,1.25943 1.05145,11.05087 v 11.45436 l -3.75,0.76728 c -7.18247,1.4696 -24.52476,4.25477 -33.39285,5.36289 -4.91072,0.61362 -9.97322,1.29057 -11.25,1.50433 l -2.32143,0.38865 z"
       id="path991"
       inkscape:connector-curvature="0"
       transform="scale(0.26458333)"
       inkscape:export-xdpi="196.28999"
       inkscape:export-ydpi="196.28999" />
    <path
       style="fill:#999999;fill-opacity:1;stroke:none;stroke-width:1.00157475;stroke-linecap:butt;stroke-linejoin:round;stroke-miterlimit:4;stroke-dasharray:none;stroke-dashoffset:0;stroke-opacity:1;paint-order:normal"
       d="m 537.41805,215.39877 3.4e-4,-11.60714 5.89251,-2.0304 c 21.26843,-7.32854 38.08619,-18.11794 44.7104,-28.68389 l 2.23907,-3.57143 -0.17134,21.42857 -0.17133,21.42858 -10.35715,3.46688 c -8.58639,2.87415 -39.43969,11.17597 -41.53495,11.17597 -0.33435,0 -0.60775,-5.22321 -0.60755,-11.60714 z"
       id="path995"
       inkscape:connector-curvature="0"
       transform="scale(0.26458333)"
       inkscape:export-xdpi="196.28999"
       inkscape:export-ydpi="196.28999" />
    <path
       style="fill:#999999;fill-opacity:1;stroke:none;stroke-width:1.00157475;stroke-linecap:butt;stroke-linejoin:round;stroke-miterlimit:4;stroke-dasharray:none;stroke-dashoffset:0;stroke-opacity:1;paint-order:normal"
       d="m 483.84627,205.1488 v -8.08782 l 3.03571,-0.80652 c 14.09842,-3.74562 28.46897,-9.65791 35.96688,-14.79739 4.29291,-2.9426 9.47053,-7.94833 10.8839,-10.52259 0.58903,-1.07282 0.78976,2.60373 0.80607,14.76403 l 0.0217,16.19259 -3.39285,1.10543 c -8.5131,2.77365 -28.05493,7.17241 -41.07143,9.24495 l -6.25,0.99515 z"
       id="path997"
       inkscape:connector-curvature="0"
       transform="scale(0.26458333)"
       inkscape:export-xdpi="196.28999"
       inkscape:export-ydpi="196.28999" />
    <path
       style="fill:#999999;fill-opacity:1;stroke:none;stroke-width:1.00157475;stroke-linecap:butt;stroke-linejoin:round;stroke-miterlimit:4;stroke-dasharray:none;stroke-dashoffset:0;stroke-opacity:1;paint-order:normal"
       d="m 387.99322,217.71413 c -14.54342,-0.6968 -34.22652,-2.45437 -44.32082,-3.95755 -3.82777,-0.57001 -7.12242,-1.03638 -7.32143,-1.03638 -0.19902,0 -0.36185,-3.31383 -0.36185,-7.36406 v -7.36405 l 8.75,1.6094 c 20.84191,3.83346 37.59722,5.23529 62.75342,5.25026 25.78775,0.0153 44.34246,-1.54369 64.21087,-5.39521 4.91071,-0.95195 9.00893,-1.73206 9.10714,-1.73358 0.0982,-0.002 0.17857,3.51129 0.17857,7.80625 0,6.82391 -0.15768,7.85439 -1.25,8.16875 -1.94952,0.56107 -20.89865,2.50111 -31.96428,3.27255 -15.02691,1.0476 -45.52025,1.42691 -59.78162,0.74362 z"
       id="path999"
       inkscape:connector-curvature="0"
       transform="scale(0.26458333)"
       inkscape:export-xdpi="196.28999"
       inkscape:export-ydpi="196.28999" />
    <ellipse
       style="fill:none;stroke:#000000;stroke-width:0.50000001;stroke-miterlimit:4;stroke-dasharray:2.00000006,2.00000006;stroke-dashoffset:0;stroke-opacity:1"
       id="path815-3-1-6"
       cx="107.91221"
       cy="95.916664"
       rx="33.655224"
       ry="11.078553"
       inkscape:export-xdpi="196.28999"
       inkscape:export-ydpi="196.28999" />
    <path
       style="fill:none;stroke:#000000;stroke-width:0.26458332px;stroke-linecap:butt;stroke-linejoin:miter;stroke-opacity:1"
       d="m 107.76107,96.219075 31.71214,2.910387"
       id="path1034"
       inkscape:connector-curvature="0"
       inkscape:export-xdpi="196.28999"
       inkscape:export-ydpi="196.28999" />
    <text
       xml:space="preserve"
       style="font-style:normal;font-variant:normal;font-weight:normal;font-stretch:normal;font-size:8.81944466px;line-height:125%;font-family:'Times New Roman';-inkscape-font-specification:'Times New Roman, ';letter-spacing:0px;word-spacing:0px;fill:#000000;fill-opacity:1;stroke:none;stroke-width:0.26458332px;stroke-linecap:butt;stroke-linejoin:miter;stroke-opacity:1"
       x="129.25639"
       y="96.442535"
       id="text4577-1"
       inkscape:export-xdpi="196.28999"
       inkscape:export-ydpi="196.28999"><tspan
         sodipodi:role="line"
         id="tspan4575-8"
         x="129.25639"
         y="96.442535"
         style="font-style:italic;stroke-width:0.26458332px">R<tspan
   style="font-size:65%;baseline-shift:sub"
   id="tspan1057">2</tspan></tspan></text>
    <ellipse
       style="fill:none;stroke:#000000;stroke-width:0.50000001;stroke-miterlimit:4;stroke-dasharray:2.00000006,2.00000006;stroke-dashoffset:0;stroke-opacity:1"
       id="path815-3-1-9-20"
       cx="108.88802"
       cy="95.916664"
       rx="47.352039"
       ry="15.5785"
       inkscape:export-xdpi="196.28999"
       inkscape:export-ydpi="196.28999" />
    <ellipse
       style="fill:none;stroke:#000000;stroke-width:0.50000001;stroke-miterlimit:4;stroke-dasharray:2.00000006,2.00000006;stroke-dashoffset:0;stroke-opacity:1"
       id="path815-3-1-9-2-2"
       cx="107.48907"
       cy="95.916664"
       rx="64.961594"
       ry="21.363935"
       inkscape:export-xdpi="196.28999"
       inkscape:export-ydpi="196.28999" />
    <path
       style="fill:none;stroke:#000000;stroke-width:0.26458332px;stroke-linecap:butt;stroke-linejoin:miter;stroke-opacity:1"
       d="m 107.76107,96.219075 39.46065,8.296545"
       id="path1113"
       inkscape:connector-curvature="0"
       inkscape:export-xdpi="196.28999"
       inkscape:export-ydpi="196.28999" />
    <text
       xml:space="preserve"
       style="font-style:normal;font-variant:normal;font-weight:normal;font-stretch:normal;font-size:8.81944466px;line-height:125%;font-family:'Times New Roman';-inkscape-font-specification:'Times New Roman, ';letter-spacing:0px;word-spacing:0px;fill:#000000;fill-opacity:1;stroke:none;stroke-width:0.26458332px;stroke-linecap:butt;stroke-linejoin:miter;stroke-opacity:1"
       x="142.81108"
       y="100.50578"
       id="text4577-1-3"
       inkscape:export-xdpi="196.28999"
       inkscape:export-ydpi="196.28999"><tspan
         sodipodi:role="line"
         id="tspan4575-8-7"
         x="142.81108"
         y="100.50578"
         style="font-style:italic;stroke-width:0.26458332px">R<tspan
   style="font-size:65%;baseline-shift:sub"
   id="tspan1136">3</tspan></tspan></text>
    <path
       style="fill:none;stroke:#000000;stroke-width:0.26458332px;stroke-linecap:butt;stroke-linejoin:miter;stroke-opacity:1"
       d="m 107.76107,96.219075 39.17717,16.328545"
       id="path1138"
       inkscape:connector-curvature="0"
       inkscape:export-xdpi="196.28999"
       inkscape:export-ydpi="196.28999" />
    <text
       xml:space="preserve"
       style="font-style:normal;font-variant:normal;font-weight:normal;font-stretch:normal;font-size:8.81944466px;line-height:125%;font-family:'Times New Roman';-inkscape-font-specification:'Times New Roman, ';letter-spacing:0px;word-spacing:0px;fill:#000000;fill-opacity:1;stroke:none;stroke-width:0.26458332px;stroke-linecap:butt;stroke-linejoin:miter;stroke-opacity:1"
       x="144.46994"
       y="120.72751"
       id="text4577-9"
       inkscape:export-xdpi="196.28999"
       inkscape:export-ydpi="196.28999"><tspan
         sodipodi:role="line"
         id="tspan4575-2"
         x="144.46994"
         y="120.72751"
         style="font-style:italic;stroke-width:0.26458332px">R<tspan
   style="font-size:65%;baseline-shift:sub"
   id="tspan1161">4</tspan></tspan></text>
  </g>
</svg>
