<?xml version="1.0" encoding="UTF-8" standalone="no"?>
<!-- Created with Inkscape (http://www.inkscape.org/) -->

<svg
   xmlns:dc="http://purl.org/dc/elements/1.1/"
   xmlns:cc="http://creativecommons.org/ns#"
   xmlns:rdf="http://www.w3.org/1999/02/22-rdf-syntax-ns#"
   xmlns:svg="http://www.w3.org/2000/svg"
   xmlns="http://www.w3.org/2000/svg"
   xmlns:sodipodi="http://sodipodi.sourceforge.net/DTD/sodipodi-0.dtd"
   xmlns:inkscape="http://www.inkscape.org/namespaces/inkscape"
   width="210mm"
   height="297mm"
   viewBox="0 0 744.09448819 1052.3622047"
   id="svg7796"
   version="1.1"
   inkscape:version="0.92.3 (2405546, 2018-03-11)"
   sodipodi:docname="esercizio_21.svg">
  <defs
     id="defs7798" />
  <sodipodi:namedview
     id="base"
     pagecolor="#ffffff"
     bordercolor="#666666"
     borderopacity="1.0"
     inkscape:pageopacity="0.0"
     inkscape:pageshadow="2"
     inkscape:zoom="0.9899495"
     inkscape:cx="102.81471"
     inkscape:cy="623.28257"
     inkscape:document-units="px"
     inkscape:current-layer="layer1"
     showgrid="false"
     inkscape:window-width="2560"
     inkscape:window-height="1333"
     inkscape:window-x="0"
     inkscape:window-y="0"
     inkscape:window-maximized="1" />
  <metadata
     id="metadata7801">
    <rdf:RDF>
      <cc:Work
         rdf:about="">
        <dc:format>image/svg+xml</dc:format>
        <dc:type
           rdf:resource="http://purl.org/dc/dcmitype/StillImage" />
        <dc:title />
      </cc:Work>
    </rdf:RDF>
  </metadata>
  <g
     inkscape:label="Livello 1"
     inkscape:groupmode="layer"
     id="layer1">
    <circle
       style="fill:none;fill-opacity:1;stroke:#000000;stroke-width:1.40625;stroke-linecap:butt;stroke-linejoin:round;stroke-miterlimit:4;stroke-dasharray:none;stroke-dashoffset:0;stroke-opacity:1;paint-order:normal"
       id="path835"
       cx="174.67841"
       cy="201.70328"
       r="21.307907"
       inkscape:export-xdpi="373.67001"
       inkscape:export-ydpi="373.67001" />
    <circle
       style="fill:none;fill-opacity:1;stroke:#000000;stroke-width:1.40625;stroke-linecap:butt;stroke-linejoin:round;stroke-miterlimit:4;stroke-dasharray:none;stroke-dashoffset:0;stroke-opacity:1;paint-order:normal"
       id="path841"
       cx="174.67841"
       cy="201.70328"
       r="50.902218"
       inkscape:export-xdpi="373.67001"
       inkscape:export-ydpi="373.67001" />
    <circle
       style="fill:none;fill-opacity:1;stroke:#000000;stroke-width:1.40625;stroke-linecap:butt;stroke-linejoin:round;stroke-miterlimit:4;stroke-dasharray:none;stroke-dashoffset:0;stroke-opacity:1;paint-order:normal"
       id="path843"
       cx="174.67841"
       cy="201.70328"
       r="79.312759"
       inkscape:export-xdpi="373.67001"
       inkscape:export-ydpi="373.67001" />
    <circle
       style="fill:none;fill-opacity:1;stroke:#000000;stroke-width:1.40625;stroke-linecap:butt;stroke-linejoin:round;stroke-miterlimit:4;stroke-dasharray:none;stroke-dashoffset:0;stroke-opacity:1;paint-order:normal"
       id="path845"
       cx="174.67841"
       cy="201.70328"
       r="113.64217"
       inkscape:export-xdpi="373.67001"
       inkscape:export-ydpi="373.67001" />
    <circle
       style="fill:none;fill-opacity:1;stroke:#000000;stroke-width:1.40625;stroke-linecap:butt;stroke-linejoin:round;stroke-miterlimit:4;stroke-dasharray:none;stroke-dashoffset:0;stroke-opacity:1;paint-order:normal"
       id="path849"
       cx="174.67841"
       cy="201.70328"
       r="154.12718"
       inkscape:export-xdpi="373.67001"
       inkscape:export-ydpi="373.67001" />
    <path
       style="fill:none;stroke:#000000;stroke-width:0.9375px;stroke-linecap:butt;stroke-linejoin:miter;stroke-opacity:1"
       d="m 226.05415,196.25794 c 0.31568,-0.63135 0.5235,-1.32935 0.94703,-1.89404 0.0947,-0.12628 0.33233,0.0706 0.4735,0 0.19965,-0.0998 0.28779,-0.34969 0.47351,-0.47352 0.29366,-0.19577 0.65337,-0.27773 0.94702,-0.4735 0.18573,-0.12381 0.27386,-0.37369 0.47351,-0.47351 0.14117,-0.0706 0.32378,0.0499 0.47351,0 0.31567,-0.15784 0.63135,-0.31568 0.94702,-0.47351 0.15784,0 0.32377,0.0499 0.4735,0 3.42983,-1.14328 -0.74653,0.13651 1.42053,-0.94702 0.13976,-0.0698 2.82675,0 3.31457,0 0.15784,0 0.31567,0 0.4735,0 0.15784,0 0.36191,0.11161 0.47352,0 0.11161,-0.11161 -0.14118,-0.40292 0,-0.4735 0.28234,-0.14118 0.63134,0 0.94701,0 0.32935,0 2.19631,-0.0856 2.36755,0 0.19965,0.0998 0.27386,0.37368 0.47351,0.4735 0.14117,0.0706 0.33233,-0.0706 0.47351,0 1.04695,0.52348 0.14694,0.29388 0.4735,0.94702 0.19965,0.3993 0.74738,0.54772 0.94702,0.94702 0.0706,0.14117 -0.1116,0.3619 0,0.4735 0.11161,0.11161 0.33234,-0.0706 0.47351,0 0.19965,0.0998 0.31568,0.31568 0.47352,0.47352 0.15783,0.15783 0.37367,0.27386 0.4735,0.47351 0.0939,0.18773 -0.0968,1.32372 0,1.42053 0.11161,0.1116 0.3619,-0.11161 0.47351,0 0.11161,0.1116 -0.0706,0.33233 0,0.4735 0.0998,0.19965 0.37369,0.27386 0.47351,0.47351 0.0706,0.14117 -0.0499,0.32377 0,0.47351 0.1116,0.33482 0.3619,0.61219 0.47351,0.94702 0.087,0.26106 -0.10123,1.7928 0,1.89403 0.11161,0.11161 0.3619,-0.11161 0.47351,0 0.11393,0.11395 -0.11394,1.7801 0,1.89404 0.11161,0.1116 0.33233,-0.0706 0.4735,0 1.04696,0.52347 0.14695,0.29388 0.47351,0.94702 0.19965,0.3993 0.74737,0.54771 0.94702,0.94701 0.0706,0.14118 0.15784,0.47352 0,0.47352 -0.15784,0 -0.15784,-0.47352 0,-0.47352 0.98532,0 0.19053,0.66404 0.47351,0.94702 0.11161,0.11161 0.36191,-0.1116 0.47352,0 0.9797,0.97971 -1.49713,-0.0383 0.4735,0.94702 0.0869,0.0434 1.42053,-0.0348 1.42053,0 0,0.15784 -0.63134,0 -0.47352,0 0.47352,0 0.94703,0 1.42053,0 0.15784,0 0.31568,0 0.47351,0 0.15784,0 0.36191,-0.1116 0.47352,0 0.1116,0.1116 -0.11161,0.36191 0,0.47351 0.1116,0.11161 0.31566,0 0.4735,0 0.15784,0 0.31568,0 0.47351,0"
       id="path851"
       inkscape:connector-curvature="0"
       inkscape:export-xdpi="373.67001"
       inkscape:export-ydpi="373.67001" />
    <path
       style="fill:none;stroke:#000000;stroke-width:0.9375px;stroke-linecap:butt;stroke-linejoin:miter;stroke-opacity:1"
       d="m 277.19313,250.23796 c -0.51179,2.04716 -0.4735,1.24325 -0.4735,2.36754 0,0.15784 -0.11161,0.36191 0,0.47351 0.1116,0.1116 0.36189,-0.1116 0.4735,0 0.11161,0.1116 -0.11161,0.36191 0,0.47351 0.11161,0.11161 0.31567,0 0.47351,0 0,0.15784 -0.0706,0.33234 0,0.47351 0.52347,1.04695 0.29388,0.14694 0.94702,0.47351 1.97063,0.98532 -0.5062,-0.0327 0.47351,0.94702 0.1116,0.11161 0.3619,-0.11161 0.4735,0 0.11161,0.11161 -0.1116,0.3619 0,0.4735 0.11161,0.11161 0.33234,-0.0706 0.47352,0 0.19965,0.0998 0.31567,0.31568 0.47351,0.47351 0.15783,0.15784 0.37368,0.27387 0.4735,0.47352 0.0706,0.14117 -0.11161,0.3619 0,0.4735 0.11161,0.11161 0.3619,-0.1116 0.47351,0 0.11161,0.11161 -0.11161,0.3619 0,0.47351 0.24957,0.24957 0.65337,0.27774 0.94702,0.47352 0.37146,0.24763 0.54772,0.74736 0.94702,0.94701 0.14117,0.0706 0.31567,0 0.47351,0 0.31567,0.15784 0.65336,0.27774 0.94701,0.47351 0.37146,0.24763 0.54773,0.74737 0.94702,0.94702 0.14118,0.0706 0.33234,-0.0706 0.47351,0 0.19965,0.0998 0.27386,0.37368 0.47351,0.4735 0.28235,0.14118 0.66467,-0.14117 0.94702,0 0.19965,0.0998 0.27386,0.37369 0.47351,0.47351 0.17124,0.0856 2.0382,0 2.36755,0 1.89403,0 3.78807,0 5.6821,0 1.26269,0 2.52538,0 3.78807,0 0.21325,0 1.27643,0.0721 1.42053,0 1.57043,-1.57043 -0.44643,0.22322 0.94701,-0.47351 0.19965,-0.0998 0.27387,-0.37368 0.47352,-0.4735 0.1441,-0.0721 1.20727,0 1.42053,0 0.94701,0 1.89403,0 2.84105,0 0.15784,0 0.31567,0 0.4735,0 0.15784,0 0.47352,-0.15784 0.47352,0 0,0.15784 -0.63135,0 -0.47352,0 0.31568,0 0.66468,-0.14118 0.94703,0 0.14117,0.0706 -0.11161,0.3619 0,0.4735 0.1116,0.11161 0.36189,-0.1116 0.4735,0 0.11161,0.11161 -0.11161,0.36191 0,0.47351 0.11161,0.11161 0.36191,-0.1116 0.47352,0 0.1116,0.11161 -0.11161,0.36191 0,0.47352 0.1116,0.1116 0.33233,-0.0706 0.4735,0 0.3993,0.19965 0.54772,0.74736 0.94702,0.94701 0.14117,0.0706 0.47351,-0.15783 0.47351,0 0,0.15784 -0.63134,0 -0.47351,0 0.31567,0 0.66467,-0.14118 0.94702,0 0.14117,0.0706 -0.11161,0.36191 0,0.47352 0.22321,0.2232 0.72381,-0.22322 0.94701,0 0.11161,0.1116 -0.1116,0.36189 0,0.4735 0.11161,0.11161 0.47352,-0.15784 0.47352,0 0,0.15784 -0.63135,0 -0.47352,0 0.31568,0 0.63135,0 0.94702,0 0.15784,0 0.3619,-0.11161 0.47351,0 0.11161,0.11161 -0.11161,0.3619 0,0.47351 0.11161,0.11161 0.31568,0 0.47352,0 0.15783,0 0.31566,0 0.4735,0"
       id="path855"
       inkscape:connector-curvature="0"
       inkscape:export-xdpi="373.67001"
       inkscape:export-ydpi="373.67001" />
    <text
       xml:space="preserve"
       style="font-style:italic;font-variant:normal;font-weight:normal;font-stretch:normal;font-size:37.5px;line-height:1.25;font-family:'Times New Roman';-inkscape-font-specification:'Times New Roman, Italic';letter-spacing:0px;word-spacing:0px;fill:#000000;fill-opacity:1;stroke:none;stroke-width:0.9375"
       x="197.64362"
       y="216.6188"
       id="text859"
       inkscape:export-xdpi="373.67001"
       inkscape:export-ydpi="373.67001"><tspan
         sodipodi:role="line"
         id="tspan857"
         x="197.64362"
         y="216.6188"
         style="stroke-width:0.9375">q</tspan></text>
    <circle
       style="fill:none;fill-opacity:1;stroke:#000000;stroke-width:1.40625;stroke-linecap:butt;stroke-linejoin:round;stroke-miterlimit:4;stroke-dasharray:none;stroke-dashoffset:0;stroke-opacity:1;paint-order:normal"
       id="path835-3"
       cx="175.29352"
       cy="683.97217"
       r="21.307909"
       inkscape:export-xdpi="373.67001"
       inkscape:export-ydpi="373.67001" />
    <circle
       style="fill:none;fill-opacity:1;stroke:#000000;stroke-width:1.40625;stroke-linecap:butt;stroke-linejoin:round;stroke-miterlimit:4;stroke-dasharray:none;stroke-dashoffset:0;stroke-opacity:1;paint-order:normal"
       id="path841-6"
       cx="175.29352"
       cy="683.97217"
       r="50.902218"
       inkscape:export-xdpi="373.67001"
       inkscape:export-ydpi="373.67001" />
    <circle
       style="fill:none;fill-opacity:1;stroke:#000000;stroke-width:1.40625;stroke-linecap:butt;stroke-linejoin:round;stroke-miterlimit:4;stroke-dasharray:none;stroke-dashoffset:0;stroke-opacity:1;paint-order:normal"
       id="path843-7"
       cx="175.29352"
       cy="683.97217"
       r="79.312767"
       inkscape:export-xdpi="373.67001"
       inkscape:export-ydpi="373.67001" />
    <circle
       style="fill:none;fill-opacity:1;stroke:#000000;stroke-width:1.40625;stroke-linecap:butt;stroke-linejoin:round;stroke-miterlimit:4;stroke-dasharray:none;stroke-dashoffset:0;stroke-opacity:1;paint-order:normal"
       id="path845-5"
       cx="175.29352"
       cy="683.97217"
       r="113.64218"
       inkscape:export-xdpi="373.67001"
       inkscape:export-ydpi="373.67001" />
    <circle
       style="fill:none;fill-opacity:1;stroke:#000000;stroke-width:1.40625;stroke-linecap:butt;stroke-linejoin:round;stroke-miterlimit:4;stroke-dasharray:none;stroke-dashoffset:0;stroke-opacity:1;paint-order:normal"
       id="path849-3"
       cx="175.29352"
       cy="683.97217"
       r="154.12718"
       inkscape:export-xdpi="373.67001"
       inkscape:export-ydpi="373.67001" />
    <path
       style="fill:none;stroke:#000000;stroke-width:0.9375px;stroke-linecap:butt;stroke-linejoin:miter;stroke-opacity:1"
       d="m 226.66925,678.52688 c 0.31568,-0.63135 0.5235,-1.32935 0.94703,-1.89404 0.0947,-0.12628 0.33233,0.0706 0.4735,0 0.19965,-0.0998 0.28779,-0.3497 0.47351,-0.47352 0.29366,-0.19577 0.65337,-0.27774 0.94703,-0.4735 0.18572,-0.12381 0.27385,-0.37369 0.4735,-0.47352 0.14118,-0.0706 0.32378,0.0499 0.47351,0 0.31568,-0.15783 0.63135,-0.31567 0.94703,-0.4735 0.15783,0 0.32376,0.0499 0.47349,0 3.42983,-1.14328 -0.74653,0.13651 1.42053,-0.94702 0.13976,-0.0699 2.82675,0 3.31458,0 0.15783,0 0.31566,0 0.47349,0 0.15785,0 0.36191,0.1116 0.47352,0 0.11161,-0.11161 -0.14118,-0.40292 0,-0.4735 0.28234,-0.14119 0.63134,0 0.94701,0 0.32935,0 2.19632,-0.0856 2.36755,0 0.19965,0.0998 0.27386,0.37368 0.47351,0.4735 0.14117,0.0706 0.33233,-0.0706 0.47352,0 1.04694,0.52348 0.14693,0.29387 0.47349,0.94702 0.19965,0.3993 0.74738,0.54772 0.94703,0.94702 0.0706,0.14116 -0.1116,0.3619 0,0.4735 0.1116,0.11161 0.33233,-0.0706 0.4735,0 0.19965,0.0998 0.31568,0.31567 0.47352,0.47352 0.15783,0.15783 0.37367,0.27385 0.4735,0.4735 0.0939,0.18774 -0.0968,1.32373 0,1.42054 0.11161,0.1116 0.36191,-0.11162 0.47352,0 0.11161,0.1116 -0.0706,0.33233 0,0.4735 0.0998,0.19965 0.37368,0.27386 0.4735,0.47351 0.0706,0.14117 -0.0499,0.32376 0,0.47351 0.1116,0.33482 0.3619,0.61219 0.47351,0.94702 0.087,0.26106 -0.10123,1.7928 0,1.89403 0.11161,0.11161 0.3619,-0.11161 0.47351,0 0.11393,0.11395 -0.11394,1.78009 0,1.89404 0.11161,0.1116 0.33233,-0.0706 0.47351,0 1.04695,0.52347 0.14694,0.29388 0.4735,0.94701 0.19965,0.3993 0.74738,0.54772 0.94703,0.94702 0.0706,0.14118 0.15783,0.47352 0,0.47352 -0.15784,0 -0.15784,-0.47352 0,-0.47352 0.98532,0 0.19052,0.66404 0.47351,0.94701 0.11161,0.11161 0.3619,-0.1116 0.47351,0 0.97971,0.97972 -1.49713,-0.0383 0.4735,0.94703 0.0869,0.0434 1.42053,-0.0348 1.42053,0 0,0.15784 -0.63134,0 -0.47352,0 0.47352,0 0.94703,0 1.42054,0 0.15783,0 0.31567,0 0.4735,0 0.15785,0 0.36191,-0.1116 0.47352,0 0.1116,0.1116 -0.11161,0.36191 0,0.47351 0.1116,0.11161 0.31567,0 0.47351,0 0.15783,0 0.31567,0 0.47351,0"
       id="path851-5"
       inkscape:connector-curvature="0"
       inkscape:export-xdpi="373.67001"
       inkscape:export-ydpi="373.67001" />
    <path
       style="fill:none;stroke:#000000;stroke-width:0.9375px;stroke-linecap:butt;stroke-linejoin:miter;stroke-opacity:1"
       d="m 277.80824,732.5069 c -0.5118,2.04716 -0.47351,1.24325 -0.47351,2.36754 0,0.15784 -0.11161,0.36191 0,0.47351 0.1116,0.1116 0.3619,-0.1116 0.47351,0 0.1116,0.1116 -0.11161,0.36191 0,0.47351 0.1116,0.11161 0.31566,0 0.47351,0 0,0.15784 -0.0706,0.33234 0,0.47351 0.52346,1.04695 0.29388,0.14694 0.94701,0.47351 1.97064,0.98532 -0.5062,-0.0327 0.47352,0.94702 0.1116,0.11161 0.3619,-0.11162 0.4735,0 0.11161,0.11161 -0.1116,0.3619 0,0.4735 0.11161,0.11161 0.33233,-0.0706 0.47351,0 0.19965,0.0998 0.31568,0.31568 0.47351,0.47351 0.15783,0.15784 0.37368,0.27387 0.47351,0.47352 0.0706,0.14117 -0.11161,0.3619 0,0.4735 0.11161,0.1116 0.36189,-0.1116 0.4735,0 0.11162,0.1116 -0.11161,0.3619 0,0.47351 0.24957,0.24957 0.65337,0.27774 0.94703,0.47352 0.37145,0.24763 0.54771,0.74736 0.94701,0.94701 0.14118,0.0706 0.31568,0 0.47351,0 0.31568,0.15784 0.65337,0.27774 0.94702,0.47351 0.37146,0.24763 0.54772,0.74737 0.94701,0.94702 0.14118,0.0706 0.33235,-0.0706 0.47352,0 0.19965,0.0998 0.27386,0.37368 0.47351,0.4735 0.28235,0.14118 0.66467,-0.14117 0.94702,0 0.19965,0.0998 0.27386,0.37369 0.47351,0.47351 0.17123,0.0856 2.0382,0 2.36754,0 1.89403,0 3.78807,0 5.6821,0 1.2627,0 2.52539,0 3.78808,0 0.21325,0 1.27642,0.0721 1.42052,0 1.57044,-1.57043 -0.44642,0.22322 0.94701,-0.47351 0.19965,-0.0998 0.27387,-0.37368 0.47352,-0.4735 0.14411,-0.0721 1.20728,0 1.42053,0 0.94702,0 1.89403,0 2.84106,0 0.15783,0 0.31566,0 0.4735,0 0.15784,0 0.47351,-0.15784 0.47351,0 0,0.15784 -0.63135,0 -0.47351,0 0.31568,0 0.66468,-0.14118 0.94703,0 0.14116,0.0706 -0.11161,0.3619 0,0.4735 0.1116,0.11161 0.36189,-0.1116 0.4735,0 0.11161,0.11161 -0.11161,0.36191 0,0.47351 0.11161,0.11161 0.3619,-0.1116 0.47352,0 0.1116,0.11161 -0.11162,0.36191 0,0.47352 0.1116,0.1116 0.33233,-0.0706 0.47349,0 0.3993,0.19965 0.54773,0.74736 0.94703,0.94701 0.14117,0.0706 0.4735,-0.15783 0.4735,0 0,0.15784 -0.63134,0 -0.4735,0 0.31566,0 0.66467,-0.14118 0.94701,0 0.14117,0.0706 -0.1116,0.36191 0,0.47352 0.22321,0.2232 0.72382,-0.22322 0.94702,0 0.11161,0.1116 -0.1116,0.36189 0,0.4735 0.11161,0.11161 0.47351,-0.15784 0.47351,0 0,0.15784 -0.63135,0 -0.47351,0 0.31568,0 0.63135,0 0.94702,0 0.15783,0 0.3619,-0.11161 0.47351,0 0.11161,0.11161 -0.11161,0.3619 0,0.47351 0.11161,0.11161 0.31567,0 0.47352,0 0.15783,0 0.31566,0 0.47349,0"
       id="path855-6"
       inkscape:connector-curvature="0"
       inkscape:export-xdpi="373.67001"
       inkscape:export-ydpi="373.67001" />
    <text
       xml:space="preserve"
       style="font-style:italic;font-variant:normal;font-weight:normal;font-stretch:normal;font-size:37.5px;line-height:1.25;font-family:'Times New Roman';-inkscape-font-specification:'Times New Roman, Italic';letter-spacing:0px;word-spacing:0px;fill:#000000;fill-opacity:1;stroke:none;stroke-width:0.9375"
       x="198.25873"
       y="698.8877"
       id="text859-2"
       inkscape:export-xdpi="373.67001"
       inkscape:export-ydpi="373.67001"><tspan
         sodipodi:role="line"
         id="tspan857-9"
         x="198.25873"
         y="698.8877"
         style="stroke-width:0.9375">q</tspan></text>
    <text
       xml:space="preserve"
       style="font-style:italic;font-variant:normal;font-weight:normal;font-stretch:normal;font-size:50px;line-height:1.25;font-family:'Times New Roman';-inkscape-font-specification:'Times New Roman, Italic';letter-spacing:0px;word-spacing:0px;fill:#000000;fill-opacity:1;stroke:none;stroke-width:0.9375"
       x="16.118341"
       y="563.47247"
       id="text902"
       inkscape:export-xdpi="373.67001"
       inkscape:export-ydpi="373.67001"><tspan
         sodipodi:role="line"
         id="tspan900"
         x="16.118341"
         y="563.47247"
         style="stroke-width:0.9375">1.</tspan></text>
    <text
       xml:space="preserve"
       style="font-style:italic;font-variant:normal;font-weight:normal;font-stretch:normal;font-size:50px;line-height:1.25;font-family:'Times New Roman';-inkscape-font-specification:'Times New Roman, Italic';letter-spacing:0px;word-spacing:0px;fill:#000000;fill-opacity:1;stroke:none;stroke-width:0.9375"
       x="420.47601"
       y="84.414627"
       id="text906"
       inkscape:export-xdpi="373.67001"
       inkscape:export-ydpi="373.67001"><tspan
         sodipodi:role="line"
         id="tspan904"
         x="420.47601"
         y="84.414627"
         style="stroke-width:0.9375">2.</tspan></text>
    <text
       xml:space="preserve"
       style="font-style:italic;font-variant:normal;font-weight:normal;font-stretch:normal;font-size:50px;line-height:1.25;font-family:'Times New Roman';-inkscape-font-specification:'Times New Roman, Italic';letter-spacing:0px;word-spacing:0px;fill:#000000;fill-opacity:1;stroke:none;stroke-width:0.9375"
       x="363.46933"
       y="568.43597"
       id="text910"
       inkscape:export-xdpi="373.67001"
       inkscape:export-ydpi="373.67001"><tspan
         sodipodi:role="line"
         id="tspan908"
         x="363.46933"
         y="568.43597"
         style="stroke-width:0.9375">3.</tspan></text>
    <circle
       style="fill:none;fill-opacity:1;stroke:#000000;stroke-width:1.40625;stroke-linecap:butt;stroke-linejoin:round;stroke-miterlimit:4;stroke-dasharray:none;stroke-dashoffset:0;stroke-opacity:1;paint-order:normal"
       id="path835-1"
       cx="578.62799"
       cy="203.83406"
       r="21.307909"
       inkscape:export-xdpi="373.67001"
       inkscape:export-ydpi="373.67001" />
    <circle
       style="fill:none;fill-opacity:1;stroke:#000000;stroke-width:1.40625;stroke-linecap:butt;stroke-linejoin:round;stroke-miterlimit:4;stroke-dasharray:none;stroke-dashoffset:0;stroke-opacity:1;paint-order:normal"
       id="path841-2"
       cx="578.62799"
       cy="203.83406"
       r="50.902218"
       inkscape:export-xdpi="373.67001"
       inkscape:export-ydpi="373.67001" />
    <circle
       style="fill:none;fill-opacity:1;stroke:#000000;stroke-width:1.40625;stroke-linecap:butt;stroke-linejoin:round;stroke-miterlimit:4;stroke-dasharray:none;stroke-dashoffset:0;stroke-opacity:1;paint-order:normal"
       id="path843-70"
       cx="578.62799"
       cy="203.83406"
       r="79.312767"
       inkscape:export-xdpi="373.67001"
       inkscape:export-ydpi="373.67001" />
    <circle
       style="fill:none;fill-opacity:1;stroke:#000000;stroke-width:1.40625;stroke-linecap:butt;stroke-linejoin:round;stroke-miterlimit:4;stroke-dasharray:none;stroke-dashoffset:0;stroke-opacity:1;paint-order:normal"
       id="path845-9"
       cx="578.62799"
       cy="203.83406"
       r="113.64218"
       inkscape:export-xdpi="373.67001"
       inkscape:export-ydpi="373.67001" />
    <circle
       style="fill:none;fill-opacity:1;stroke:#000000;stroke-width:1.40625;stroke-linecap:butt;stroke-linejoin:round;stroke-miterlimit:4;stroke-dasharray:none;stroke-dashoffset:0;stroke-opacity:1;paint-order:normal"
       id="path849-36"
       cx="578.62799"
       cy="203.83406"
       r="154.12718"
       inkscape:export-xdpi="373.67001"
       inkscape:export-ydpi="373.67001" />
    <path
       style="fill:none;stroke:#000000;stroke-width:0.9375px;stroke-linecap:butt;stroke-linejoin:miter;stroke-opacity:1"
       d="m 630.00375,198.38874 c 0.31567,-0.63135 0.5235,-1.32934 0.94702,-1.89404 0.0947,-0.12628 0.33234,0.0706 0.47351,0 0.19965,-0.0998 0.28779,-0.34969 0.47351,-0.47352 0.29365,-0.19577 0.65337,-0.27773 0.94702,-0.47349 0.18572,-0.12382 0.27386,-0.37369 0.47351,-0.47352 0.14117,-0.0706 0.32377,0.0499 0.47351,0 0.31567,-0.15783 0.63135,-0.31567 0.94702,-0.47351 0.15783,0 0.32377,0.0499 0.4735,0 3.42982,-1.14328 -0.74653,0.13651 1.42053,-0.94701 0.13976,-0.0699 2.82675,0 3.31457,0 0.15783,0 0.31567,0 0.4735,0 0.15784,0 0.36191,0.1116 0.47352,0 0.11161,-0.11161 -0.14119,-0.40292 0,-0.47351 0.28234,-0.14118 0.63134,0 0.94701,0 0.32935,0 2.19631,-0.0856 2.36755,0 0.19965,0.0998 0.27385,0.37368 0.4735,0.47351 0.14118,0.0706 0.33234,-0.0706 0.47352,0 1.04695,0.52348 0.14694,0.29387 0.4735,0.94701 0.19965,0.3993 0.74737,0.54773 0.94702,0.94703 0.0706,0.14116 -0.1116,0.36189 0,0.47349 0.1116,0.11162 0.33234,-0.0706 0.47351,0 0.19965,0.0998 0.31568,0.31568 0.47352,0.47352 0.15783,0.15783 0.37367,0.27386 0.4735,0.47351 0.0939,0.18774 -0.0968,1.32373 0,1.42053 0.11161,0.1116 0.3619,-0.11161 0.47351,0 0.11161,0.1116 -0.0706,0.33234 0,0.47351 0.0998,0.19965 0.37369,0.27386 0.47351,0.47351 0.0706,0.14117 -0.0499,0.32376 0,0.4735 0.1116,0.33483 0.3619,0.6122 0.47351,0.94703 0.087,0.26105 -0.10123,1.7928 0,1.89403 0.11161,0.11161 0.36189,-0.11161 0.4735,0 0.11394,0.11394 -0.11393,1.78009 0,1.89404 0.11162,0.1116 0.33234,-0.0706 0.47351,0 1.04696,0.52346 0.14695,0.29388 0.47351,0.94701 0.19965,0.3993 0.74737,0.54772 0.94702,0.94702 0.0706,0.14118 0.15784,0.47351 0,0.47351 -0.15784,0 -0.15784,-0.47351 0,-0.47351 0.98532,0 0.19053,0.66403 0.47351,0.94701 0.11161,0.11161 0.36191,-0.1116 0.47352,0 0.9797,0.97971 -1.49713,-0.0383 0.4735,0.94702 0.0869,0.0434 1.42053,-0.0348 1.42053,0 0,0.15785 -0.63134,0 -0.47352,0 0.47352,0 0.94703,0 1.42053,0 0.15783,0 0.31568,0 0.47351,0 0.15784,0 0.36191,-0.1116 0.47352,0 0.1116,0.1116 -0.11161,0.36191 0,0.47351 0.1116,0.11161 0.31566,0 0.4735,0 0.15784,0 0.31568,0 0.47351,0"
       id="path851-0"
       inkscape:connector-curvature="0"
       inkscape:export-xdpi="373.67001"
       inkscape:export-ydpi="373.67001" />
    <path
       style="fill:none;stroke:#000000;stroke-width:0.9375px;stroke-linecap:butt;stroke-linejoin:miter;stroke-opacity:1"
       d="m 681.14273,252.36876 c -0.51179,2.04717 -0.4735,1.24326 -0.4735,2.36755 0,0.15784 -0.11161,0.36191 0,0.47351 0.1116,0.1116 0.36189,-0.1116 0.4735,0 0.11161,0.1116 -0.11161,0.3619 0,0.4735 0.11161,0.11161 0.31567,0 0.47351,0 0,0.15785 -0.0706,0.33235 0,0.47352 0.52347,1.04695 0.29388,0.14694 0.94702,0.47351 1.97063,0.98532 -0.5062,-0.0327 0.47351,0.94701 0.1116,0.11161 0.3619,-0.11161 0.4735,0 0.11161,0.11161 -0.1116,0.36191 0,0.47351 0.11161,0.11161 0.33234,-0.0706 0.47352,0 0.19965,0.0998 0.31567,0.31567 0.47351,0.47351 0.15783,0.15784 0.37368,0.27386 0.4735,0.47351 0.0706,0.14118 -0.11161,0.36191 0,0.47351 0.11161,0.1116 0.3619,-0.1116 0.47351,0 0.11161,0.1116 -0.11161,0.3619 0,0.47351 0.24957,0.24957 0.65337,0.27773 0.94702,0.47352 0.37146,0.24763 0.54772,0.74736 0.94702,0.94701 0.14117,0.0706 0.31567,0 0.47351,0 0.31567,0.15783 0.65336,0.27774 0.94701,0.47351 0.37146,0.24763 0.54773,0.74736 0.94702,0.94701 0.14118,0.0706 0.33234,-0.0706 0.47351,0 0.19965,0.0998 0.27386,0.37368 0.47351,0.47351 0.28235,0.14118 0.66467,-0.14117 0.94702,0 0.19965,0.0998 0.27386,0.37368 0.47351,0.47351 0.17124,0.0856 2.0382,0 2.36755,0 1.89403,0 3.78807,0 5.6821,0 1.26269,0 2.52539,0 3.78807,0 0.21325,0 1.27643,0.0721 1.42053,0 1.57043,-1.57043 -0.44643,0.22322 0.94701,-0.47351 0.19965,-0.0998 0.27387,-0.37368 0.47352,-0.47351 0.14411,-0.0721 1.20727,0 1.42053,0 0.94701,0 1.89403,0 2.84105,0 0.15784,0 0.31567,0 0.4735,0 0.15784,0 0.47352,-0.15783 0.47352,0 0,0.15785 -0.63135,0 -0.47352,0 0.31568,0 0.66468,-0.14117 0.94703,0 0.14117,0.0706 -0.1116,0.36191 0,0.47351 0.1116,0.11161 0.36189,-0.1116 0.4735,0 0.11161,0.11161 -0.11161,0.36191 0,0.47351 0.11161,0.11161 0.36191,-0.1116 0.47352,0 0.1116,0.11161 -0.11161,0.3619 0,0.47351 0.1116,0.1116 0.33233,-0.0706 0.4735,0 0.3993,0.19965 0.54772,0.74737 0.94702,0.94702 0.14117,0.0706 0.47351,-0.15783 0.47351,0 0,0.15784 -0.63134,0 -0.47351,0 0.31567,0 0.66467,-0.14118 0.94702,0 0.14117,0.0706 -0.11161,0.36191 0,0.47352 0.22321,0.2232 0.72381,-0.22322 0.94701,0 0.11161,0.1116 -0.1116,0.36188 0,0.47349 0.11161,0.11161 0.47352,-0.15783 0.47352,0 0,0.15785 -0.63135,0 -0.47352,0 0.31568,0 0.63135,0 0.94703,0 0.15783,0 0.36189,-0.11161 0.4735,0 0.11161,0.11161 -0.11161,0.36191 0,0.47352 0.11161,0.11161 0.31568,0 0.47352,0 0.15783,0 0.31567,0 0.4735,0"
       id="path855-62"
       inkscape:connector-curvature="0"
       inkscape:export-xdpi="373.67001"
       inkscape:export-ydpi="373.67001" />
    <text
       xml:space="preserve"
       style="font-style:italic;font-variant:normal;font-weight:normal;font-stretch:normal;font-size:37.5px;line-height:1.25;font-family:'Times New Roman';-inkscape-font-specification:'Times New Roman, Italic';letter-spacing:0px;word-spacing:0px;fill:#000000;fill-opacity:1;stroke:none;stroke-width:0.9375"
       x="601.5932"
       y="218.74959"
       id="text859-6"
       inkscape:export-xdpi="373.67001"
       inkscape:export-ydpi="373.67001"><tspan
         sodipodi:role="line"
         id="tspan857-1"
         x="601.5932"
         y="218.74959"
         style="stroke-width:0.9375">q</tspan></text>
    <circle
       style="fill:none;fill-opacity:1;stroke:#000000;stroke-width:1.40625;stroke-linecap:butt;stroke-linejoin:round;stroke-miterlimit:4;stroke-dasharray:none;stroke-dashoffset:0;stroke-opacity:1;paint-order:normal"
       id="path835-8"
       cx="588.09814"
       cy="692.49536"
       r="21.307909"
       inkscape:export-xdpi="373.67001"
       inkscape:export-ydpi="373.67001" />
    <circle
       style="fill:none;fill-opacity:1;stroke:#000000;stroke-width:1.40625;stroke-linecap:butt;stroke-linejoin:round;stroke-miterlimit:4;stroke-dasharray:none;stroke-dashoffset:0;stroke-opacity:1;paint-order:normal"
       id="path841-7"
       cx="588.09814"
       cy="692.49536"
       r="50.902218"
       inkscape:export-xdpi="373.67001"
       inkscape:export-ydpi="373.67001" />
    <circle
       style="fill:none;fill-opacity:1;stroke:#000000;stroke-width:1.40625;stroke-linecap:butt;stroke-linejoin:round;stroke-miterlimit:4;stroke-dasharray:none;stroke-dashoffset:0;stroke-opacity:1;paint-order:normal"
       id="path843-9"
       cx="588.09814"
       cy="692.49536"
       r="79.312767"
       inkscape:export-xdpi="373.67001"
       inkscape:export-ydpi="373.67001" />
    <circle
       style="fill:none;fill-opacity:1;stroke:#000000;stroke-width:1.40625;stroke-linecap:butt;stroke-linejoin:round;stroke-miterlimit:4;stroke-dasharray:none;stroke-dashoffset:0;stroke-opacity:1;paint-order:normal"
       id="path845-2"
       cx="588.09814"
       cy="692.49536"
       r="113.64218"
       inkscape:export-xdpi="373.67001"
       inkscape:export-ydpi="373.67001" />
    <circle
       style="fill:none;fill-opacity:1;stroke:#000000;stroke-width:1.40625;stroke-linecap:butt;stroke-linejoin:round;stroke-miterlimit:4;stroke-dasharray:none;stroke-dashoffset:0;stroke-opacity:1;paint-order:normal"
       id="path849-0"
       cx="588.09814"
       cy="692.49536"
       r="154.12718"
       inkscape:export-xdpi="373.67001"
       inkscape:export-ydpi="373.67001" />
    <path
       style="fill:none;stroke:#000000;stroke-width:0.9375px;stroke-linecap:butt;stroke-linejoin:miter;stroke-opacity:1"
       d="m 639.47394,687.05003 c 0.31567,-0.63135 0.5235,-1.32934 0.94702,-1.89404 0.0947,-0.12628 0.33234,0.0706 0.47351,0 0.19965,-0.0998 0.28779,-0.34969 0.47351,-0.47352 0.29365,-0.19577 0.65337,-0.27773 0.94702,-0.47349 0.18572,-0.12382 0.27386,-0.37369 0.47351,-0.47352 0.14117,-0.0706 0.32377,0.0499 0.47351,0 0.31567,-0.15783 0.63135,-0.31567 0.94702,-0.47351 0.15783,0 0.32377,0.0499 0.4735,0 3.42982,-1.14328 -0.74653,0.13651 1.42053,-0.94701 0.13976,-0.0699 2.82675,0 3.31457,0 0.15783,0 0.31567,0 0.4735,0 0.15784,0 0.36191,0.1116 0.47352,0 0.11161,-0.11161 -0.14119,-0.40292 0,-0.47351 0.28234,-0.14118 0.63134,0 0.94701,0 0.32935,0 2.19631,-0.0856 2.36755,0 0.19965,0.0998 0.27385,0.37368 0.4735,0.47351 0.14118,0.0706 0.33234,-0.0706 0.47352,0 1.04695,0.52348 0.14694,0.29387 0.4735,0.94701 0.19965,0.3993 0.74737,0.54773 0.94702,0.94703 0.0706,0.14116 -0.1116,0.36189 0,0.47349 0.1116,0.11162 0.33234,-0.0706 0.47351,0 0.19965,0.0998 0.31568,0.31568 0.47352,0.47352 0.15783,0.15783 0.37367,0.27386 0.4735,0.47351 0.0939,0.18774 -0.0968,1.32373 0,1.42053 0.11161,0.1116 0.3619,-0.11161 0.47351,0 0.11161,0.1116 -0.0706,0.33234 0,0.47351 0.0998,0.19965 0.37369,0.27386 0.47351,0.47351 0.0706,0.14117 -0.0499,0.32376 0,0.4735 0.1116,0.33483 0.3619,0.6122 0.47351,0.94703 0.087,0.26105 -0.10123,1.7928 0,1.89403 0.11161,0.11161 0.36189,-0.11161 0.4735,0 0.11394,0.11394 -0.11393,1.78009 0,1.89404 0.11162,0.1116 0.33234,-0.0706 0.47351,0 1.04696,0.52346 0.14695,0.29388 0.47351,0.94701 0.19965,0.3993 0.74737,0.54772 0.94702,0.94702 0.0706,0.14118 0.15784,0.47351 0,0.47351 -0.15784,0 -0.15784,-0.47351 0,-0.47351 0.98532,0 0.19053,0.66403 0.47351,0.94701 0.11161,0.11161 0.36191,-0.1116 0.47352,0 0.9797,0.97971 -1.49713,-0.0383 0.4735,0.94702 0.0869,0.0434 1.42053,-0.0348 1.42053,0 0,0.15785 -0.63134,0 -0.47352,0 0.47352,0 0.94703,0 1.42053,0 0.15783,0 0.31568,0 0.47351,0 0.15784,0 0.36191,-0.1116 0.47352,0 0.1116,0.1116 -0.11161,0.36191 0,0.47351 0.1116,0.11161 0.31566,0 0.4735,0 0.15784,0 0.31568,0 0.47351,0"
       id="path851-2"
       inkscape:connector-curvature="0"
       inkscape:export-xdpi="373.67001"
       inkscape:export-ydpi="373.67001" />
    <path
       style="fill:none;stroke:#000000;stroke-width:0.9375px;stroke-linecap:butt;stroke-linejoin:miter;stroke-opacity:1"
       d="m 690.61292,741.03005 c -0.51179,2.04717 -0.4735,1.24326 -0.4735,2.36755 0,0.15784 -0.11161,0.36191 0,0.47351 0.1116,0.1116 0.36189,-0.1116 0.4735,0 0.11161,0.1116 -0.11161,0.3619 0,0.4735 0.11161,0.11161 0.31567,0 0.47351,0 0,0.15785 -0.0706,0.33235 0,0.47352 0.52347,1.04695 0.29388,0.14694 0.94702,0.47351 1.97063,0.98532 -0.5062,-0.0327 0.47351,0.94701 0.1116,0.11161 0.3619,-0.11161 0.4735,0 0.11161,0.11161 -0.1116,0.36191 0,0.47351 0.11161,0.11161 0.33234,-0.0706 0.47352,0 0.19965,0.0998 0.31567,0.31567 0.47351,0.47351 0.15783,0.15784 0.37368,0.27386 0.4735,0.47351 0.0706,0.14118 -0.11161,0.36191 0,0.47351 0.11161,0.1116 0.3619,-0.1116 0.47351,0 0.11161,0.1116 -0.11161,0.3619 0,0.47351 0.24957,0.24957 0.65337,0.27773 0.94702,0.47352 0.37146,0.24763 0.54772,0.74736 0.94702,0.94701 0.14117,0.0706 0.31567,0 0.47351,0 0.31567,0.15783 0.65336,0.27774 0.94701,0.47351 0.37146,0.24763 0.54773,0.74736 0.94702,0.94701 0.14118,0.0706 0.33234,-0.0706 0.47351,0 0.19965,0.0998 0.27386,0.37368 0.47351,0.47351 0.28235,0.14118 0.66467,-0.14117 0.94702,0 0.19965,0.0998 0.27386,0.37368 0.47351,0.47351 0.17124,0.0856 2.0382,0 2.36755,0 1.89403,0 3.78807,0 5.6821,0 1.26269,0 2.52539,0 3.78807,0 0.21325,0 1.27643,0.0721 1.42053,0 1.57043,-1.57043 -0.44643,0.22322 0.94701,-0.47351 0.19965,-0.0998 0.27387,-0.37368 0.47352,-0.47351 0.14411,-0.0721 1.20727,0 1.42053,0 0.94701,0 1.89403,0 2.84105,0 0.15784,0 0.31567,0 0.4735,0 0.15784,0 0.47352,-0.15783 0.47352,0 0,0.15785 -0.63135,0 -0.47352,0 0.31568,0 0.66468,-0.14117 0.94703,0 0.14117,0.0706 -0.1116,0.36191 0,0.47351 0.1116,0.11161 0.36189,-0.1116 0.4735,0 0.11161,0.11161 -0.11161,0.36191 0,0.47351 0.11161,0.11161 0.36191,-0.1116 0.47352,0 0.1116,0.11161 -0.11161,0.3619 0,0.47351 0.1116,0.1116 0.33233,-0.0706 0.4735,0 0.3993,0.19965 0.54772,0.74737 0.94702,0.94702 0.14117,0.0706 0.47351,-0.15783 0.47351,0 0,0.15784 -0.63134,0 -0.47351,0 0.31567,0 0.66467,-0.14118 0.94702,0 0.14117,0.0706 -0.11161,0.36191 0,0.47352 0.22321,0.2232 0.72381,-0.22322 0.94701,0 0.11161,0.1116 -0.1116,0.36188 0,0.47349 0.11161,0.11161 0.47352,-0.15783 0.47352,0 0,0.15785 -0.63135,0 -0.47352,0 0.31568,0 0.63135,0 0.94703,0 0.15783,0 0.36189,-0.11161 0.4735,0 0.11161,0.11161 -0.11161,0.36191 0,0.47352 0.11161,0.11161 0.31568,0 0.47352,0 0.15783,0 0.31567,0 0.4735,0"
       id="path855-3"
       inkscape:connector-curvature="0"
       inkscape:export-xdpi="373.67001"
       inkscape:export-ydpi="373.67001" />
    <text
       xml:space="preserve"
       style="font-style:italic;font-variant:normal;font-weight:normal;font-stretch:normal;font-size:37.5px;line-height:1.25;font-family:'Times New Roman';-inkscape-font-specification:'Times New Roman, Italic';letter-spacing:0px;word-spacing:0px;fill:#000000;fill-opacity:1;stroke:none;stroke-width:0.9375"
       x="611.06342"
       y="707.41089"
       id="text859-7"
       inkscape:export-xdpi="373.67001"
       inkscape:export-ydpi="373.67001"><tspan
         sodipodi:role="line"
         id="tspan857-5"
         x="611.06342"
         y="707.41089"
         style="stroke-width:0.9375">q</tspan></text>
    <path
       style="fill:none;stroke:#000000;stroke-width:0.9375px;stroke-linecap:butt;stroke-linejoin:miter;stroke-opacity:1"
       d="m 176.61886,662.19079 c 3.70546,0.55126 0.34599,-1.76652 0.94701,-2.36755 0.97971,-0.9797 -0.0383,1.49713 0.94702,-0.47351 0.0706,-0.14117 -0.1116,-0.3619 0,-0.4735 0.11161,-0.11161 0.3619,0.1116 0.47351,0 0.11161,-0.11161 -0.0706,-0.33235 0,-0.47351 0.0998,-0.19965 0.31568,-0.31568 0.47352,-0.47352 0.15782,-0.15783 0.27385,-0.37368 0.4735,-0.4735 0.14118,-0.0706 0.3619,0.1116 0.47351,0 0.11161,-0.11161 -0.0706,-0.33234 0,-0.47351 0.0629,-0.12572 1.2948,-1.35767 1.42053,-1.42053 0.14117,-0.0706 0.3619,0.11161 0.4735,0 0.22322,-0.22321 -0.14117,-0.66467 0,-0.94702 0.0998,-0.19965 0.37369,-0.27386 0.47351,-0.47351 0.0721,-0.1441 0,-1.20727 0,-1.42053 0,-0.94701 0,-1.89403 0,-2.84104 0,-0.15784 0,-0.31568 0,-0.47352 0,-0.15783 0.0706,-0.33233 0,-0.47351 -0.0998,-0.19965 -0.37368,-0.27385 -0.47351,-0.4735 -0.14117,-0.28235 0.22322,-0.72381 0,-0.94703 -0.1116,-0.1116 -0.36189,0.11161 -0.4735,0 -0.11161,-0.1116 0.0706,-0.33233 0,-0.4735 -0.19965,-0.3993 -0.74738,-0.54773 -0.94703,-0.94702 -0.0706,-0.14117 0.11161,-0.3619 0,-0.47351 -0.1116,-0.11161 -0.36189,0.11161 -0.4735,0 -0.11161,-0.11161 0.11161,-0.3619 0,-0.47351 -0.11161,-0.1116 -0.3619,0.11161 -0.47351,0 -0.11161,-0.1116 0.11161,-0.3619 0,-0.4735 -0.11161,-0.11161 -0.3619,0.1116 -0.4735,0 -0.11161,-0.11161 0.0706,-0.33234 0,-0.47352 -1.007,-2.01398 0.06,1.06697 -0.94703,-0.94701 -0.0706,-0.14118 0.0706,-0.33234 0,-0.47351 -0.0998,-0.19965 -0.37368,-0.27387 -0.4735,-0.47351 -0.0706,-0.14118 0.0706,-0.33234 0,-0.47351 -0.0998,-0.19965 -0.37369,-0.27386 -0.47352,-0.47351 -0.0612,-0.12242 0,-2.50543 0,-2.84105 0,-0.15784 0.11161,-0.3619 0,-0.47351 -0.1116,-0.11161 -0.3619,0.11161 -0.47351,0 -0.0152,-0.0152 0,-1.30569 0,-1.42053 0,-0.78918 0,-1.57837 0,-2.36754 0,-0.63158 0,-0.31544 0,-0.94702 0,-0.15784 -0.15783,-0.47351 0,-0.47351 0.15784,0 0,0.31567 0,0.47351"
       id="path992"
       inkscape:connector-curvature="0"
       inkscape:export-xdpi="373.67001"
       inkscape:export-ydpi="373.67001" />
    <path
       style="fill:none;stroke:#000000;stroke-width:0.9375px;stroke-linecap:butt;stroke-linejoin:miter;stroke-opacity:1"
       d="m 630.24048,264.44322 c 2.04716,-0.51179 1.24326,-0.4735 2.36755,-0.4735 0.15783,0 0.33234,-0.0706 0.4735,0 0.19965,0.0998 0.27387,0.37368 0.47352,0.4735 0.14117,0.0706 0.33233,-0.0706 0.4735,0 0.19965,0.0998 0.27386,0.37369 0.47351,0.47351 0.14118,0.0706 0.36191,-0.11161 0.47352,0 0.1116,0.11161 -0.11161,0.36191 0,0.47352 0.1116,0.1116 0.3619,-0.11161 0.4735,0 0.11161,0.1116 -0.1116,0.36189 0,0.4735 0.11161,0.11161 0.3619,-0.11161 0.47351,0 0.11161,0.11161 -0.0706,0.33233 0,0.47351 0.39471,0.78941 0.94702,0.21395 0.94702,1.42053 0,0.15784 0,0.31567 0,0.4735 0,0.15784 -0.0706,0.33234 0,0.47352 0.19965,0.3993 0.74737,0.54771 0.94701,0.94701 0.0706,0.14118 -0.0706,0.33234 0,0.47351 0.19965,0.3993 0.74738,0.54772 0.94703,0.94702 0.14117,0.28235 -0.14118,0.66467 0,0.94702 0.19965,0.3993 0.74736,0.54772 0.94701,0.94702 0.0721,0.1441 0,1.20728 0,1.42052 0,1.26269 0,2.52538 0,3.78807 0,3.78807 0,7.57615 0,11.36423 0,0.94701 0,1.89403 0,2.84104 0,0.15784 -0.11161,0.36191 0,0.47352 0.11161,0.11161 0.36191,-0.11161 0.47352,0 0.23674,0.23675 -0.23676,1.18377 0,1.42052 0.1116,0.11161 0.36189,-0.11161 0.4735,0 0.0968,0.0968 -0.0939,1.23279 0,1.42053 0.0998,0.19965 0.31567,0.31567 0.47351,0.47351 0.15784,0.15783 0.27386,0.37368 0.4735,0.47351 0.14118,0.0706 0.36191,-0.11161 0.47352,0 0.63135,0.63134 -0.78918,0.47351 0.47351,0.47351 0.15784,0 0.31566,0 0.4735,0 0.15784,0 0.47351,-0.15784 0.47351,0 0,0.15783 -0.31567,0 -0.47351,0"
       id="path996"
       inkscape:connector-curvature="0"
       inkscape:export-xdpi="373.67001"
       inkscape:export-ydpi="373.67001" />
    <g
       id="g3212"
       transform="rotate(90,581.68125,695.53575)"
       inkscape:export-xdpi="373.67001"
       inkscape:export-ydpi="373.67001">
      <g
         style="stroke-width:0.16623165;stroke-miterlimit:4;stroke-dasharray:none"
         transform="matrix(0,5.71706,-5.5634262,0,4923.6244,-2666.9413)"
         id="g3201">
        <path
           style="fill:none;fill-rule:evenodd;stroke:#000000;stroke-width:0.16623165;stroke-linecap:butt;stroke-linejoin:miter;stroke-miterlimit:4;stroke-dasharray:none;stroke-opacity:1"
           d="M 620.29767,791.13166 V 773.45399"
           id="path4263"
           inkscape:connector-curvature="0"
           inkscape:export-xdpi="373.67001"
           inkscape:export-ydpi="373.67001" />
        <path
           style="fill:none;fill-rule:evenodd;stroke:#000000;stroke-width:0.16623165;stroke-linecap:butt;stroke-linejoin:miter;stroke-miterlimit:4;stroke-dasharray:none;stroke-opacity:1"
           d="m 620.04513,790.37404 7.8252,-4.51788"
           id="path4265"
           inkscape:connector-curvature="0"
           inkscape:export-xdpi="373.67001"
           inkscape:export-ydpi="373.67001" />
        <path
           style="fill:none;fill-rule:evenodd;stroke:#000000;stroke-width:0.16623165;stroke-linecap:butt;stroke-linejoin:miter;stroke-miterlimit:4;stroke-dasharray:none;stroke-opacity:1"
           d="m 620.04687,779.62727 7.8252,-4.51788"
           id="path4265-6"
           inkscape:connector-curvature="0"
           inkscape:export-xdpi="373.67001"
           inkscape:export-ydpi="373.67001" />
        <path
           style="fill:none;fill-rule:evenodd;stroke:#000000;stroke-width:0.16623165;stroke-linecap:butt;stroke-linejoin:miter;stroke-miterlimit:4;stroke-dasharray:none;stroke-opacity:1"
           d="m 620.17314,785.56192 7.8252,-4.51788"
           id="path4265-2"
           inkscape:connector-curvature="0"
           inkscape:export-xdpi="373.67001"
           inkscape:export-ydpi="373.67001" />
        <path
           style="fill:none;fill-rule:evenodd;stroke:#000000;stroke-width:0.16623165;stroke-linecap:butt;stroke-linejoin:miter;stroke-miterlimit:4;stroke-dasharray:none;stroke-opacity:1"
           d="m 620.29941,774.95531 7.8252,-4.51788"
           id="path4265-9"
           inkscape:connector-curvature="0"
           inkscape:export-xdpi="373.67001"
           inkscape:export-ydpi="373.67001" />
      </g>
      <path
         inkscape:connector-curvature="0"
         id="path3203"
         d="m 573.06427,879.29467 v -35.3948"
         style="fill:none;stroke:#000000;stroke-width:0.9375px;stroke-linecap:butt;stroke-linejoin:miter;stroke-opacity:1" />
    </g>
  </g>
</svg>
